<svg id="undraw_Hello_qnas_1_" data-name="undraw_Hello_qnas (1)" xmlns="http://www.w3.org/2000/svg" xmlns:xlink="http://www.w3.org/1999/xlink" width="903.822" height="747.216" viewBox="0 0 903.822 747.216">
  <defs>
    <linearGradient id="linear-gradient" x1="0.5" y1="1" x2="0.5" gradientUnits="objectBoundingBox">
      <stop offset="0" stop-color="gray" stop-opacity="0.251"/>
      <stop offset="0.535" stop-color="gray" stop-opacity="0.122"/>
      <stop offset="1" stop-color="gray" stop-opacity="0.102"/>
    </linearGradient>
    <linearGradient id="linear-gradient-3" x1="0.5" y1="1" x2="0.5" y2="0" xlink:href="#linear-gradient"/>
  </defs>
  <path id="Path_237" data-name="Path 237" d="M287.076,677.787c0,45.239-26.895,61.036-60.068,61.036-.772,0-1.541-.008-2.3-.029-1.536-.033-3.06-.1-4.563-.209-29.942-2.117-53.2-18.728-53.2-60.8,0-43.536,55.626-98.473,59.822-102.551l.008,0c.159-.159.242-.238.242-.238S287.076,632.544,287.076,677.787Z" transform="translate(-149.803 -76.892)" fill="#3f3d56"/>
  <path id="Path_238" data-name="Path 238" d="M224.817,731.9l21.972-30.7-22.027,34.067-.058,3.524c-1.536-.033-3.06-.1-4.563-.209l2.367-45.26-.017-.351.042-.067.221-4.275-22.081-34.154,22.148,30.948.054.906,1.791-34.2-18.9-35.29L224.9,646.129l1.862-70.893.008-.242v.238l-.309,55.906,18.816-22.164-18.9,26.978-.5,30.619,17.572-29.383-17.647,33.891L225.53,688.1l25.508-40.9-25.6,46.842Z" transform="translate(-149.803 -76.892)" fill="#f2f2f2"/>
  <g id="Group_20" data-name="Group 20" transform="translate(779.509 273.511)" opacity="0.7">
    <path id="Path_239" data-name="Path 239" d="M983.788,360.7V349.8H929.312v50.39a10.623,10.623,0,0,0,10.623,10.623h33.23a10.623,10.623,0,0,0,10.623-10.623V389.025a14.164,14.164,0,1,0,0-28.327Zm0,22.88V366.145a8.716,8.716,0,0,1,0,17.432Z" transform="translate(-929.312 -349.802)" fill="url(#linear-gradient)"/>
  </g>
  <path id="Path_240" data-name="Path 240" d="M982.035,362.4a12.932,12.932,0,1,0,12.932,12.932A12.932,12.932,0,0,0,982.035,362.4Zm0,20.89a7.958,7.958,0,1,1,7.958-7.958,7.958,7.958,0,0,1-7.958,7.958Z" transform="translate(-149.803 -76.289)" fill="#0abfad"/>
  <path id="Path_241" data-name="Path 241" d="M982.035,362.4a12.932,12.932,0,1,0,12.932,12.932A12.932,12.932,0,0,0,982.035,362.4Zm0,20.89a7.958,7.958,0,1,1,7.958-7.958,7.958,7.958,0,0,1-7.958,7.958Z" transform="translate(-149.803 -76.289)" opacity="0.1"/>
  <path id="Path_242" data-name="Path 242" d="M782.493,276.563h49.739V322.52a9.75,9.75,0,0,1-9.75,9.75H792.243a9.75,9.75,0,0,1-9.75-9.75Z" transform="translate(0 -0.399)" fill="#0abfad"/>
  <path id="Path_243" data-name="Path 243" d="M973.082,352.455v46.008a9.7,9.7,0,0,1-9.7,9.7h4.974a9.7,9.7,0,0,0,9.7-9.7V352.455Z" transform="translate(-149.803 -76.292)" opacity="0.1"/>
  <path id="Path_244" data-name="Path 244" d="M942.112,315.373a2.9,2.9,0,0,0-2.2,1.115c-.653,1.183.53,2.516,1.609,3.329,1.993,1.5,4.094,2.976,5.449,5.072s1.781,5.02.3,7.029c-1.934,2.622-6.548,3.187-6.994,6.414-.287,2.072,1.5,3.84,3.32,4.88,4.48,2.566,10.256,3.251,13.5,7.267,1.342-2.761,4.345-4.356,7.338-5.038s6.1-.631,9.138-1.093a3.159,3.159,0,0,0,2.521-1.337c.848-1.722-1.569-3.786-.735-5.515.635-1.315,2.5-1.213,3.863-1.74,2.218-.858,3.133-3.713,2.5-6.007s-2.408-4.086-4.278-5.556c-5.04-3.961-11.1-6.29-17.231-7.965-2.851-.779-6.2-2-9.159-2.119C948.2,314,944.941,314.889,942.112,315.373Z" transform="translate(-149.803 -76.227)" fill="#eee"/>
  <line id="Line_7" data-name="Line 7" x1="104" y2="324" transform="translate(339.209 343.016)" fill="none" stroke="#e0e0e0" stroke-miterlimit="10" stroke-width="8"/>
  <g id="Group_21" data-name="Group 21" transform="translate(191.374)" opacity="0.7">
    <path id="Path_245" data-name="Path 245" d="M673.591,779.457C660.8,780.2,649.4,790.9,649.4,790.9l-5.511-13.652-.45.146c2.692-11.769,57.466-254.379,2.634-275.295-42.133-16.072-86.824-35.96-121.838-35.213V409.575h49.089v-2.043h38.862c7.45-5.314-3.375-8.968-15.473-11.252a11.042,11.042,0,0,0,1.3-1.827l62.243-111.522s14.318-23.49,5.113-34.725-22.5,28.6-22.5,28.6l-51.134,73.535s-51.609-53.719-84.439-80.433a57.46,57.46,0,0,0-12.221-9.224c-5.993-4.049-10.529-6.147-12.766-5.324-.023.008-.041.022-.064.031a57.358,57.358,0,0,0-15.276-2.074h-4.091v-8.38a65.571,65.571,0,0,0,40.526-38.35,73.511,73.511,0,0,0,5.84-64.082,4.261,4.261,0,0,0,1.722-.6c1.852-1.191,2.035-3.8,1.857-5.988A45.491,45.491,0,0,0,489.7,100.347c-5.182-2.83-11.116-4.779-14.937-9.276-3.283-3.864-4.663-9.269-8.636-12.421-4.72-3.746-11.538-3.1-17.33-1.43a63.1,63.1,0,0,0-18.088,8.524c-6.265,4.285-11.919,9.79-19.131,12.162-5.125,1.685-10.682,1.652-15.84,3.235a26.588,26.588,0,0,0-17.117,16.672,34.66,34.66,0,0,0-1.464,13.031,73.071,73.071,0,0,0-7.346,16.689c-.386.208-.774.412-1.156.626l1.121-.5a73.454,73.454,0,0,0,20.742,74.989,65.551,65.551,0,0,0,31.45,22.29v10.138a77.391,77.391,0,0,0-25.1,10.266l-.011-.013s-.653.4-1.77,1.154l-.335.226c-7.568,5.129-32.926,23.871-32.069,44.124q-.05,1.168.013,2.343a77.771,77.771,0,0,0-2.089,17.859V478A72.118,72.118,0,0,0,376.12,522.77c-21.341,4.777-34.942,12-34.942,20.087a6.532,6.532,0,0,1,0,2.043c0,14.383,43.04,26.044,96.132,26.044,6.419,0,12.69-.172,18.757-.5l59.99,48.5L419.924,773.164s-31.7,24.511-7.159,32.681,74.656,14.3,74.656,14.3,8.181-14.3-3.068-20.426-26.59-3.064-26.59-3.064l2.045-12.256s166.7-142.984,131.926-192.007c-6.652-9.379-13.3-19.056-20.014-28.582l26.242,2.388,5.971,224.457.747-.243c-1.5,4.409-12.1,37.689,11.4,32.057,25.158-6.029,70.933-27.3,70.933-27.3S686.384,778.716,673.591,779.457ZM573.326,393.234,524.237,379v-41.94l53.354,56.561C574.968,393.36,573.326,393.234,573.326,393.234Z" transform="translate(-341.177 -75.892)" fill="url(#linear-gradient)"/>
  </g>
  <circle id="Ellipse_7" data-name="Ellipse 7" cx="72" cy="72" r="72" transform="translate(220.209 27.016)"/>
  <path id="Path_246" data-name="Path 246" d="M524.012,339.908l54.948,58.329a10.735,10.735,0,0,0,17.191-2.134l60.862-109.194-17-6-50,72s-93.867-97.837-107-93S524.012,339.908,524.012,339.908Z" transform="translate(-149.803 -76.195)" fill="#0abfad"/>
  <line id="Line_8" data-name="Line 8" x1="81" y2="210" transform="translate(188.209 465.016)" fill="none" stroke="#bdbdbd" stroke-miterlimit="10" stroke-width="5"/>
  <line id="Line_9" data-name="Line 9" x2="81" y2="210" transform="translate(309.209 465.016)" fill="none" stroke="#bdbdbd" stroke-miterlimit="10" stroke-width="5"/>
  <ellipse id="Ellipse_8" data-name="Ellipse 8" cx="94" cy="25.5" rx="94" ry="25.5" transform="translate(195.209 441.382)" fill="#b84733"/>
  <ellipse id="Ellipse_9" data-name="Ellipse 9" cx="94" cy="25.5" rx="94" ry="25.5" transform="translate(195.209 439.385)" fill="#f55f44"/>
  <line id="Line_10" data-name="Line 10" x2="88.69" y2="27.33" transform="translate(249.655 511.444)" fill="none" stroke="#bdbdbd" stroke-miterlimit="10" stroke-width="5"/>
  <line id="Line_11" data-name="Line 11" x1="88.69" y2="27.33" transform="translate(240.073 511.444)" fill="none" stroke="#bdbdbd" stroke-miterlimit="10" stroke-width="5"/>
  <path id="Path_247" data-name="Path 247" d="M290.3,182.016h27.905a56,56,0,0,1,56,56v148h-160v-127.9a76.1,76.1,0,0,1,76.1-76.095Z" transform="translate(0 -0.334)" fill="#0abfad"/>
  <path id="Path_248" data-name="Path 248" d="M214.209,386.016h160v87h-89a71,71,0,0,1-71-71v-16Z" transform="translate(0 -0.584)" fill="#39447a"/>
  <path id="Path_249" data-name="Path 249" d="M366.173,317.948l97.839,92.961h108v-14l-93-27-79.553-98.241S363.334,293.987,366.173,317.948Z" transform="translate(-149.803 -76.214)" opacity="0.05"/>
  <path id="Path_250" data-name="Path 250" d="M366.173,315.948l97.839,92.961h108v-14l-93-27-79.553-98.241S363.334,291.987,366.173,315.948Z" transform="translate(-149.803 -76.21)" fill="#0abfad"/>
  <path id="Path_251" data-name="Path 251" d="M572.012,394.908s52,4,38,14h-38Z" transform="translate(-149.803 -76.327)" fill="#fda57d"/>
  <path id="Path_252" data-name="Path 252" d="M640.012,280.908s13-39,22-28-5,34-5,34Z" transform="translate(-149.803 -76.138)" fill="#fda57d"/>
  <path id="Path_253" data-name="Path 253" d="M214.209,386.016v4.667l160,.333v-5Z" transform="translate(0 -0.519)" opacity="0.05"/>
  <path id="Path_254" data-name="Path 254" d="M488.475,554.453,596.1,564.261l5.839,219.772,38.531-12.544s57.626-249,2.676-269.986S528.8,452.877,493.336,475.4,488.475,554.453,488.475,554.453Z" transform="translate(-149.803 -76.892)" fill="#39447a"/>
  <path id="Path_255" data-name="Path 255" d="M495.012,486.908s59,30,67,64" transform="translate(-149.803 -76.493)" opacity="0.1"/>
  <path id="Path_256" data-name="Path 256" d="M432.013,547.908l84,68-94,151,39,11s163-140,129-188-68-104-110-105S432.013,547.908,432.013,547.908Z" transform="translate(-149.803 -76.892)" fill="#39447a"/>
  <path id="Path_257" data-name="Path 257" d="M414.209,251.016l21,36,5-10Z" transform="translate(0 -0.352)" opacity="0.05"/>
  <path id="Path_258" data-name="Path 258" d="M422.012,766.908s-31,24-7,32,73,14,73,14,8-14-3-20-26-3-26-3l2-12Z" transform="translate(-149.803 -76.892)" fill="#333"/>
  <path id="Path_259" data-name="Path 259" d="M602.835,783.323s-13.617,37.764,10.983,31.861,69.36-26.725,69.36-26.725-.615-16.113-13.123-15.388-23.653,11.2-23.653,11.2l-5.388-13.367Z" transform="translate(-149.803 -76.892)" fill="#333"/>
  <rect id="Rectangle_733" data-name="Rectangle 733" width="40" height="60" rx="20" transform="translate(274.209 146.803)" fill="#fda57d"/>
  <path id="Path_260" data-name="Path 260" d="M444.012,224.908a20,20,0,0,0-20,20v6.8a64.006,64.006,0,0,0,40,0v-6.8a20,20,0,0,0-20-20Z" transform="translate(-149.803 -76.1)" opacity="0.05"/>
  <circle id="Ellipse_10" data-name="Ellipse 10" cx="64" cy="64" r="64" transform="translate(230.209 49.016)" fill="#fda57d"/>
  <path id="Path_261" data-name="Path 261" d="M380.012,186s16,4.123,25-14.062,16-28.1,53-17.358,44.443,12.057,46.222,1.9c1.215-6.944-11.941-23.809-20.4-33.794-4.124-4.871-10.855-7.777-18.048-7.777H424.012l-25,11.572-19,16.532-4,22.318Z" transform="translate(-149.803 -75.892)" opacity="0.05"/>
  <path id="Path_262" data-name="Path 262" d="M380.012,184s16,4.123,25-14.062,16-28.1,53-17.358,44.443,12.057,46.222,1.9c1.215-6.944-11.941-23.809-20.4-33.794-4.124-4.871-10.855-7.777-18.048-7.777H424.012l-25,11.572-19,16.532-4,22.318Z" transform="translate(-149.803 -75.892)"/>
  <ellipse id="Ellipse_11" data-name="Ellipse 11" cx="6.5" cy="13" rx="6.5" ry="13" transform="translate(230.209 95.016)" fill="#fda57d"/>
  <path id="Path_263" data-name="Path 263" d="M381.867,150.458c-1.483-8.371-2.94-17.162-.24-25.223a26.014,26.014,0,0,1,16.737-16.324c5.043-1.55,10.477-1.517,15.488-3.167,7.052-2.322,12.581-7.712,18.707-11.908a61.657,61.657,0,0,1,17.687-8.346c5.663-1.637,12.33-2.267,16.945,1.4,3.885,3.087,5.234,8.379,8.444,12.162,3.736,4.4,9.539,6.312,14.605,9.083a44.545,44.545,0,0,1,22.61,34.829c.175,2.147,0,4.7-1.816,5.863a6.483,6.483,0,0,1-3.647.666c-25.579-.366-51.188-.733-76.661-3.081-7.919-.73-15.853-1.652-23.8-1.351a77.855,77.855,0,0,0-35.045,9.888" transform="translate(-149.803 -75.892)"/>
  <rect id="Rectangle_734" data-name="Rectangle 734" width="154.085" height="65.568" rx="32.784" transform="translate(0 644.267)" fill="#0abfad"/>
  <path id="Path_264" data-name="Path 264" d="M725.679,487.075a1.5,1.5,0,1,0-1.448-1.5A1.5,1.5,0,0,0,725.679,487.075Z" transform="translate(-149.803 -76.44)" fill="url(#linear-gradient-3)"/>
  <line id="Line_12" data-name="Line 12" x2="104" y2="370.092" transform="translate(795.971 343.016)" fill="none" stroke="#e0e0e0" stroke-miterlimit="10" stroke-width="8"/>
  <rect id="Rectangle_735" data-name="Rectangle 735" width="561.606" height="21.885" transform="translate(338.787 332.719)" fill="#e0e0e0"/>
  <rect id="Rectangle_736" data-name="Rectangle 736" width="92" height="13" rx="6.5" transform="translate(477.209 327.57)" fill="#535461"/>
  <g id="Group_22" data-name="Group 22" transform="translate(533.209 182.767)" opacity="0.7">
    <rect id="Rectangle_737" data-name="Rectangle 737" width="228.659" height="158.101" rx="28.22" fill="url(#linear-gradient)"/>
  </g>
  <rect id="Rectangle_738" data-name="Rectangle 738" width="216.609" height="155.184" rx="26.835" transform="translate(537.286 185.681)" fill="#3e3f49"/>
  <rect id="Rectangle_739" data-name="Rectangle 739" width="216.609" height="155.184" rx="26.835" transform="translate(540.286 185.681)" fill="#535461"/>
  <circle id="Ellipse_12" data-name="Ellipse 12" cx="7" cy="7" r="7" transform="translate(651.709 255.168)" fill="#e0e0e0"/>
</svg>
