<svg xmlns="http://www.w3.org/2000/svg" width="61.237" height="61.237" viewBox="0 0 61.237 61.237">
  <g id="ico_24_communication_call" data-name="ico / 24 / communication / call" transform="matrix(0.966, 0.259, -0.259, 0.966, 12.941, 0)">
    <rect id="Bounding_box" data-name="Bounding box" width="50" height="50" fill="rgba(255,255,255,0)"/>
    <path id="Icon_color" data-name="Icon color" d="M34.22,44a24.614,24.614,0,0,1-11.586-2.909l-1.1-.611A44,44,0,0,1,3.618,22.565l-.611-1.1A24.614,24.614,0,0,1,0,9.781V8.144A4.889,4.889,0,0,1,1.442,4.673L5.573.542A1.833,1.833,0,0,1,8.457.909l5.5,9.435a2.444,2.444,0,0,1-.391,2.958l-4.62,4.62a1.222,1.222,0,0,0-.22,1.442l.856,1.613A33.071,33.071,0,0,0,23.025,34.4l1.613.88a1.222,1.222,0,0,0,1.442-.22l4.62-4.62a2.444,2.444,0,0,1,2.958-.391l9.435,5.5a1.833,1.833,0,0,1,.367,2.884L39.329,42.56A4.889,4.889,0,0,1,35.858,44Z" transform="translate(3 2.998)" fill="#fff"/>
  </g>
</svg>
