<svg xmlns="http://www.w3.org/2000/svg" xmlns:xlink="http://www.w3.org/1999/xlink" width="43" height="43" viewBox="0 0 43 43">
  <defs>
    <clipPath id="clip-path">
      <rect width="43" height="43" fill="none"/>
    </clipPath>
  </defs>
  <g id="ico_24_communication_chat_outlined" data-name="ico / 24 / communication / chat_outlined" opacity="0.7" clip-path="url(#clip-path)">
    <rect id="Bounding_box" data-name="Bounding box" width="43" height="43" transform="translate(0)" fill="rgba(255,255,255,0)"/>
    <path id="Icon_color" data-name="Icon color" d="M40.067,40a.914.914,0,0,1-.652-.285l-3.73-3.8a5.584,5.584,0,0,0-3.961-1.675H11.193a3.773,3.773,0,0,1-3.732-3.8H29.846a7.544,7.544,0,0,0,7.461-7.608V7.608A3.778,3.778,0,0,1,41,11.412V39.05A.942.942,0,0,1,40.067,40ZM.933,32.335A.943.943,0,0,1,0,31.384V7.608A7.544,7.544,0,0,1,7.461,0H26.116a7.544,7.544,0,0,1,7.461,7.608V19.02a7.544,7.544,0,0,1-7.461,7.608H9.22a5.505,5.505,0,0,0-3.9,1.618L1.585,32.051A.92.92,0,0,1,.933,32.335ZM7.461,3.8a3.772,3.772,0,0,0-3.73,3.8V24.727a9.278,9.278,0,0,1,5.6-1.9H26.116a3.772,3.772,0,0,0,3.73-3.8V7.608a3.772,3.772,0,0,0-3.73-3.8Z" transform="translate(1 2)"/>
  </g>
</svg>
