<svg xmlns="http://www.w3.org/2000/svg" width="129.96" height="138.313" viewBox="0 0 129.96 138.313">
  <g id="support" transform="translate(-9.02 -9.6)">
    <g id="Group_50" data-name="Group 50" transform="translate(9.02 9.6)">
      <g id="Group_49" data-name="Group 49">
        <path id="Path_273" data-name="Path 273" d="M168.318,125.027c0-8.693-6.944-14.8-19.553-17.21l-21.6-4.44c-5.3-1.623-6.314-3.047-6.314-5.1V88.432a29.111,29.111,0,0,0,10.5-8.869h5.281c5.31,0,9.789-3.273,11.107-7.706H153.7c7.463,0,13.535-5.493,13.535-12.246v-9c0-6.753-6.072-12.247-13.535-12.247h-5.573V36.739C148.128,16.481,129.913,0,107.523,0h-8.36C76.773,0,58.557,16.481,58.557,36.739V38.36H52.984c-7.463,0-13.535,5.494-13.535,12.246v9c0,6.753,6.072,12.247,13.535,12.247H71.526a27.748,27.748,0,0,0,14.37,16.6,2.464,2.464,0,0,0-.061.544v9.276c0,2.05-1.011,3.474-6.314,5.1l-21.6,4.44c-12.61,2.406-19.553,8.517-19.553,17.21v10.585a2.854,2.854,0,0,0,2.986,2.7h87.7a2.715,2.715,0,1,0,0-5.4H44.334v-7.884c0-6.041,4.991-10.054,14.834-11.927l.047-.009,19.073-3.919L101.81,121.9a3.259,3.259,0,0,0,3.066,0l23.52-12.732,19.07,3.919.047.009c9.843,1.873,14.834,5.886,14.834,11.928l0,7.882H153.2a2.715,2.715,0,1,0,0,5.4h12.137a3.152,3.152,0,0,0,2.112-.792,2.578,2.578,0,0,0,.874-1.911Zm-20.19-81.264H153.7c4.17,0,7.564,3.07,7.564,6.844v9c0,3.774-3.393,6.844-7.564,6.844h-5.573ZM58.557,66.455H52.984c-4.17,0-7.564-3.07-7.564-6.844v-9c0-3.774,3.393-6.844,7.564-6.844h5.573Zm71.657-18.116H129.5a24.689,24.689,0,0,1-13.494-3.92,60.16,60.16,0,0,0,8.881-6.647,2.523,2.523,0,0,0,0-3.82,3.213,3.213,0,0,0-4.223,0,57.823,57.823,0,0,1-38.983,14.61H76.472V37.82c0-11.917,10.715-21.611,23.886-21.611h5.971c13.171,0,23.886,9.695,23.886,21.611Zm6.412,25.822h-2.275q.46-1.129.809-2.3h6.115A5.687,5.687,0,0,1,136.626,74.161ZM70.555,66.455H64.529V36.739C64.529,19.461,80.066,5.4,99.163,5.4h8.36c19.1,0,34.634,14.058,34.634,31.337V66.455H136.13c.035-.537.055-1.077.055-1.621V37.82c0-14.9-13.394-27.014-29.857-27.014h-5.971C83.894,10.806,70.5,22.924,70.5,37.82V64.834C70.5,65.379,70.52,65.919,70.555,66.455Zm5.916-1.621V53.965h5.209a66.392,66.392,0,0,0,23.383-4.208q2.818-1.056,5.484-2.348A30.8,30.8,0,0,0,129.5,53.742h.714V64.834a19.8,19.8,0,0,1-2.342,9.326H114.431a2.715,2.715,0,1,0,0,5.4h9.354a25.037,25.037,0,0,1-17.456,6.882h-5.971C87.187,86.446,76.472,76.751,76.472,64.834Zm26.871,51.6-17.648-9.554c3.423-1.652,6.111-4.172,6.111-8.6V90.718a32.678,32.678,0,0,0,8.551,1.131h5.971a32.675,32.675,0,0,0,8.546-1.129v7.562c0,4.433,2.69,6.952,6.114,8.6Z" transform="translate(-38.363)"/>
      </g>
    </g>
    <g id="Group_52" data-name="Group 52" transform="translate(69.2 82.535)">
      <g id="Group_51" data-name="Group 51">
        <path id="Path_274" data-name="Path 274" d="M254.194,275.932a4.8,4.8,0,1,0,1.406,3.394A4.832,4.832,0,0,0,254.194,275.932Z" transform="translate(-246 -274.53)"/>
      </g>
    </g>
    <g id="Group_54" data-name="Group 54" transform="translate(108.676 141.513)">
      <g id="Group_53" data-name="Group 53">
        <path id="Path_275" data-name="Path 275" d="M377.112,492.938a3.2,3.2,0,1,0,.938,2.262A3.219,3.219,0,0,0,377.112,492.938Z" transform="translate(-371.65 -492)"/>
      </g>
    </g>
  </g>
</svg>
