<svg id="insurance" xmlns="http://www.w3.org/2000/svg" width="148" height="139" viewBox="0 0 148 139">
  <path id="Path_266" data-name="Path 266" d="M160.048,74.855a4.658,4.658,0,0,0-4.331-2.925h-2.386a23.635,23.635,0,0,0-11.552,3.025l-17.392,9.767h-4.9A13.815,13.815,0,0,0,105.94,73.4H74.594a2.506,2.506,0,0,0-1.917.894L63.222,85.554a2.487,2.487,0,0,0-1.853-.833H14.907a2.521,2.521,0,0,0,0,5.041H44.821v35.2H14.906a2.521,2.521,0,0,0,0,5.041H61.368a2.514,2.514,0,0,0,2.51-2.521V115.721l49.974-2.3a.667.667,0,0,0,.143-.01,35.344,35.344,0,0,0,20.937-9.865l24.05-23.556a4.69,4.69,0,0,0,1.067-5.131ZM58.864,124.963H49.838v-35.2h9.026Zm72.561-25.031a30.3,30.3,0,0,1-17.879,8.452l-49.663,2.292V92.591L75.764,78.446H105.94a8.775,8.775,0,0,1,8.538,6.873L89.669,91.435a2.521,2.521,0,0,0,1.2,4.9L117.5,89.766h7.534a2.5,2.5,0,0,0,1.225-.321l17.963-10.083a18.636,18.636,0,0,1,9.1-2.382h1.54Z" transform="translate(-12.396 8.996)"/>
  <path id="Path_267" data-name="Path 267" d="M91.236,88.773a2.525,2.525,0,0,0,1.584,0c36.806-12.21,32.16-59.242,32.11-59.716a2.522,2.522,0,0,0-1.776-2.14A274.533,274.533,0,0,1,93.064,15.969a2.524,2.524,0,0,0-2.077,0A273.929,273.929,0,0,1,60.9,26.916a2.521,2.521,0,0,0-1.775,2.14C59.074,29.53,54.431,76.563,91.236,88.773ZM64.025,31.236a288.653,288.653,0,0,0,28-10.209,288.8,288.8,0,0,0,28.011,10.209c.4,7.935.451,42.414-28.005,52.485C63.575,73.646,63.622,39.166,64.025,31.236Z" transform="translate(7.432 -15.746)"/>
  <path id="Path_268" data-name="Path 268" d="M83.914,61.6a6.431,6.431,0,0,0,4.565-1.919L107.583,40.17a6.388,6.388,0,0,0-.094-9.035,6.672,6.672,0,0,0-4.536-1.824,6.338,6.338,0,0,0-4.5,1.919L83.925,46.065l-4.956-5.079a6.391,6.391,0,1,0-9.145,8.93l9.522,9.756A6.441,6.441,0,0,0,83.914,61.6ZM73.455,44.488a1.335,1.335,0,0,1,.941-.383h.017a1.341,1.341,0,0,1,.948.406l6.752,6.924a2.52,2.52,0,0,0,3.6,0l16.342-16.682a1.347,1.347,0,1,1,1.923,1.886L84.88,56.148a1.394,1.394,0,0,1-1.927,0l-9.522-9.756a1.35,1.35,0,0,1,.024-1.9Z" transform="translate(11.603 -9.772)"/>
</svg>
