<svg id="surface1" xmlns="http://www.w3.org/2000/svg" width="148" height="139" viewBox="0 0 148 139">
  <path id="Path_276" data-name="Path 276" d="M123.333,24.543V11.583C123.325,5.189,117.808.008,111,0H12.333C5.525.008.009,5.189,0,11.583V62.55c.019,5.916,4.794,10.864,11.061,11.464l9.272,22.605c2.449,5.969,9.587,8.942,15.943,6.645l57.9-20.948a31.728,31.728,0,0,0,3.072,29.735l1.417,2.129v22.5A2.4,2.4,0,0,0,101.133,139h44.4A2.4,2.4,0,0,0,148,136.683V60.213a29.417,29.417,0,0,0-9.45-21.354Zm0,13.855,7.486,18.252a6.827,6.827,0,0,1-4.248,8.982l-4.279,1.552a10.988,10.988,0,0,0,1.041-4.633ZM4.933,62.55V11.583a7.187,7.187,0,0,1,7.4-6.95H111a7.187,7.187,0,0,1,7.4,6.95V26.308h-.022l.022.053V62.55a6.642,6.642,0,0,1-.168,1.2L95.638,42.527a13.779,13.779,0,0,0-18.3-.085,11.829,11.829,0,0,0-.693,17.176L86.277,69.5H12.333A7.187,7.187,0,0,1,4.933,62.55Zm31.6,11.583-17.54,6.342-2.6-6.342ZM34.5,98.94a7.556,7.556,0,0,1-9.566-3.986L20.774,84.79,50.219,74.133v-.014H90.8L94,77.4Zm108.565,35.427H103.6V115.833h39.467Zm0-23.167H102.5l-1.07-1.605a27.391,27.391,0,0,1-.625-29.669,2.208,2.208,0,0,0-.323-2.715L80.271,56.5a7.4,7.4,0,0,1,.382-10.791,8.613,8.613,0,0,1,11.5.105l39.307,36.908,3.488-3.276-9.127-8.572,2.531-.927c6.35-2.3,9.515-9,7.072-14.966L127.071,34.62l7.991,7.521a24.894,24.894,0,0,1,8,18.073Zm0,0"/>
  <path id="Path_277" data-name="Path 277" d="M93.54,104.446A10.906,10.906,0,0,0,104.446,93.54V73.406A10.906,10.906,0,0,0,93.54,62.5H73.406A10.906,10.906,0,0,0,62.5,73.406V93.54a10.906,10.906,0,0,0,10.906,10.906ZM70.889,93.54V87.668h8.389V79.279H70.889V73.406a2.517,2.517,0,0,1,2.517-2.517H93.54a2.517,2.517,0,0,1,2.517,2.517v5.872H87.668v8.389h8.389V93.54a2.517,2.517,0,0,1-2.517,2.517H73.406A2.517,2.517,0,0,1,70.889,93.54Zm0,0" transform="translate(-45.721 -45.721)"/>
  <path id="Path_278" data-name="Path 278" d="M78.125,265.625H94.9v8.389H78.125Zm0,0" transform="translate(-57.152 -227.343)"/>
  <path id="Path_279" data-name="Path 279" d="M78.125,359.375H94.9v8.389H78.125Zm0,0" transform="translate(-57.152 -307.581)"/>
  <path id="Path_280" data-name="Path 280" d="M359.375,359.375h16.779v8.389H359.375Zm0,0" transform="translate(-305.48 -307.581)"/>
  <path id="Path_281" data-name="Path 281" d="M171.875,265.625h16.779v8.389H171.875Zm0,0" transform="translate(-146.099 -227.343)"/>
  <path id="Path_282" data-name="Path 282" d="M265.625,265.625H282.4v8.389H265.625Zm0,0" transform="translate(-225.79 -227.343)"/>
  <path id="Path_283" data-name="Path 283" d="M359.375,265.625h16.779v8.389H359.375Zm0,0" transform="translate(-305.48 -227.343)"/>
  <path id="Path_284" data-name="Path 284" d="M656.25,78.125h8.389V90.709H656.25Zm0,0" transform="translate(-555.153 -57.152)"/>
  <path id="Path_285" data-name="Path 285" d="M593.75,78.125h8.389V90.709H593.75Zm0,0" transform="translate(-502.281 -57.152)"/>
  <path id="Path_286" data-name="Path 286" d="M531.25,78.125h8.389V90.709H531.25Zm0,0" transform="translate(-449.409 -57.152)"/>
  <path id="Path_287" data-name="Path 287" d="M468.75,78.125h8.389V90.709H468.75Zm0,0" transform="translate(-396.538 -57.152)"/>
  <path id="Path_288" data-name="Path 288" d="M687.5,812.5h8.389v8.389H687.5Zm0,0" transform="translate(-581.588 -703.514)"/>
</svg>
