<svg xmlns="http://www.w3.org/2000/svg" xmlns:xlink="http://www.w3.org/1999/xlink" width="148" height="139" viewBox="0 0 148 139">
  <defs>
    <clipPath id="clip-path">
      <rect id="Rectangle_1101" data-name="Rectangle 1101" width="148" height="139" fill="#f1f1f1"/>
    </clipPath>
  </defs>
  <g id="Mask_Group_1" data-name="Mask Group 1" clip-path="url(#clip-path)">
    <g id="hand" transform="translate(6.461 -0.107)">
      <path id="Path_269" data-name="Path 269" d="M752.526,1133.874a2.775,2.775,0,0,0,0-3.841,2.59,2.59,0,0,0-3.732,0,2.777,2.777,0,0,0,0,3.841A2.59,2.59,0,0,0,752.526,1133.874Zm0,0" transform="translate(-690.44 -1039.587)"/>
      <path id="Path_270" data-name="Path 270" d="M644.482,29.858c0,16.464,13.017,29.859,29.017,29.859s29.018-13.4,29.018-29.859S689.5,0,673.5,0,644.482,13.394,644.482,29.858Zm52.759,0c0,13.471-10.651,24.43-23.742,24.43s-23.742-10.959-23.742-24.43S660.408,5.429,673.5,5.429,697.241,16.388,697.241,29.858Zm0,0" transform="translate(-594.888)"/>
      <path id="Path_271" data-name="Path 271" d="M32.1,806.679a2.585,2.585,0,0,0,3.723.022l12.789-12.965a8.374,8.374,0,0,0,1.878-8.423l2.751-2.73a7.752,7.752,0,0,1,5.493-2.283H93.8a23.276,23.276,0,0,0,16.56-6.922c.183-.184-1.393,1.727,23.925-29.408a11.09,11.09,0,0,0-1.253-15.3,10.372,10.372,0,0,0-14.8,1.211L102.663,746.34a10.492,10.492,0,0,0-8.2-4.041H65.045a33.2,33.2,0,0,0-13.21-2.714c-12.7,0-23.795,6.037-29.747,17.356a7.738,7.738,0,0,0-7.055,2.249L2.484,772.141a2.771,2.771,0,0,0,0,3.829Zm19.736-61.666A28.1,28.1,0,0,1,63.448,747.5a2.57,2.57,0,0,0,1.058.228H94.462a5.431,5.431,0,0,1,0,10.857H72.939a2.715,2.715,0,0,0,0,5.428H94.462a10.719,10.719,0,0,0,10.552-10.857,11.207,11.207,0,0,0-.093-1.419c15.058-15.927,17.181-18.165,17.272-18.276a5.191,5.191,0,0,1,7.438-.647,5.55,5.55,0,0,1,.618,7.662l-23.661,29.1A18.1,18.1,0,0,1,93.8,774.872H58.733a12.924,12.924,0,0,0-9.157,3.805L47.334,780.9,26.668,759.64c4.83-9.324,13.893-14.627,25.167-14.627ZM18.766,763.026a2.576,2.576,0,0,1,3.266-.382c.457.286-.854-.942,22.848,23.414a2.776,2.776,0,0,1,.014,3.826l-10.9,11.052L8.072,774.062Zm0,0" transform="translate(-1.714 -668.468)"/>
      <path id="Path_272" data-name="Path 272" d="M914.417,139.472v3.181a8.144,8.144,0,0,0-5.276,7.677,8.04,8.04,0,0,0,7.914,8.143,2.715,2.715,0,0,1,0,5.428,4.742,4.742,0,0,1-3.425-2.053,2.588,2.588,0,0,0-3.717-.331,2.768,2.768,0,0,0-.322,3.824,10.95,10.95,0,0,0,4.826,3.535v3.168a2.639,2.639,0,1,0,5.275,0v-3.181a8.146,8.146,0,0,0,5.276-7.677,8.04,8.04,0,0,0-7.914-8.143,2.716,2.716,0,0,1,0-5.429,4.187,4.187,0,0,1,2.853,1.419,2.587,2.587,0,0,0,3.73-.063,2.771,2.771,0,0,0-.061-3.838,10.148,10.148,0,0,0-3.885-2.5v-3.162a2.639,2.639,0,1,0-5.275,0Zm0,0" transform="translate(-838.971 -125.9)"/>
    </g>
  </g>
</svg>
