<svg id="ico_24_map_places_poi_remove" data-name="ico / 24 / map &amp; places / poi_remove" xmlns="http://www.w3.org/2000/svg" width="50" height="50" viewBox="0 0 50 50">
  <rect id="Bounding_box" data-name="Bounding box" width="50" height="50" fill="rgba(255,255,255,0)"/>
  <path id="Icon_color" data-name="Icon color" d="M22.005,46q-.069,0-.138,0H20.4q-.069,0-.138,0a2.619,2.619,0,0,1-2.487-1.566l-1.337-3.542c-1.255-3.28-4.066-5.235-7.043-7.306C4.774,30.376,0,27.055,0,18.4,0,8.254,9.421,0,21,0S42,8.254,42,18.4c0,8.639-4.7,11.959-9.25,15.169-2.939,2.075-5.715,4.035-6.921,7.325l-1.337,3.542A2.619,2.619,0,0,1,22.005,46ZM11.812,16.1A1.241,1.241,0,0,0,10.5,17.249v2.3A1.242,1.242,0,0,0,11.812,20.7H30.188A1.24,1.24,0,0,0,31.5,19.548v-2.3A1.239,1.239,0,0,0,30.188,16.1Z" transform="translate(4 2)" fill="#fff"/>
</svg>
