<svg id="ico_24_communication_draft" data-name="ico / 24 / communication / draft" xmlns="http://www.w3.org/2000/svg" width="50" height="50" viewBox="0 0 50 50">
  <rect id="Bounding_box" data-name="Bounding box" width="50" height="50" fill="rgba(255,255,255,0)"/>
  <path id="Icon_color" data-name="Icon color" d="M41.4,46H4.6A4.606,4.606,0,0,1,0,41.4V17.042A4.607,4.607,0,0,1,1.954,13.27L19.206,1.194a6.627,6.627,0,0,1,7.589,0L44.046,13.27A4.6,4.6,0,0,1,46,17.042V41.4A4.606,4.606,0,0,1,41.4,46ZM23,4.6a1.967,1.967,0,0,0-1.149.368L4.6,17.042,21.851,29.094a1.965,1.965,0,0,0,1.139.368,2.1,2.1,0,0,0,1.161-.346L41.4,17.042,24.151,4.965A1.974,1.974,0,0,0,23,4.6Z" transform="translate(2 2.001)" fill="#fff"/>
</svg>
