<svg xmlns="http://www.w3.org/2000/svg" width="147" height="148" viewBox="0 0 147 148">
  <g id="project_1_" data-name="project (1)" transform="translate(0 0)">
    <path id="Path_321" data-name="Path 321" d="M147,63.828V56.02a11.967,11.967,0,0,0-10.176-11.813l-6.421-.922V39.95a16.724,16.724,0,0,0,7.113-13.692V23.871h4.742V19.1h-4.742V16.71A11.909,11.909,0,0,0,125.661,4.774h-9.484A11.909,11.909,0,0,0,104.322,16.71V19.1H99.581v4.774h4.742v2.387a16.7,16.7,0,0,0,5,11.935H94.839V7.161A7.147,7.147,0,0,0,87.726,0H40.306a7.147,7.147,0,0,0-7.113,7.161V52.516H0V66.839H4.742v62.976l-2.93,1.476,23.71,11.935h80.952L106.9,148h28.039l4.95-54.9v-.029A7.421,7.421,0,0,0,147,85.646a7.527,7.527,0,0,0-2.167-5.268L140.878,76.4l3.979-5.722A11.93,11.93,0,0,0,147,63.828Zm-18.131-15.94.97.139-2.734,7.34-2.833-2.85Zm-3.208-3.521-4.742,4.774-4.742-4.774v-2.1a16.322,16.322,0,0,0,9.484,0Zm-97.21,89.311H94.839v4.774H28.452ZM94.839,128.9H28.452v-4.774H94.839ZM52.161,100.258H18.968V76.387H52.161ZM94.839,76.387H85.355V66.839h9.484Zm0-20.364v6.041H85.355V52.525l10.056,0a11.739,11.739,0,0,0-.572,3.493ZM80.613,62.064H66.387V52.516l14.226.007ZM66.387,66.839H80.613v9.548H66.387Zm0,14.323H80.613V90.71H66.387Zm0,14.323H80.613v9.548H66.387Zm0,14.323H80.613v9.548H66.387Zm18.968,9.548v-9.548H103.5l.852,9.548Zm17.719-14.323H85.355V95.484h16.6c.093,0,.178-.023.267-.027ZM85.355,90.71V81.161h9.484v7.161a7.1,7.1,0,0,0,.436,2.387ZM98.221,47.758l-36.576-.016v71.613H56.9V42.968h54.532v.317l-6.418.924a11.741,11.741,0,0,0-6.8,3.549Zm14.748.129,4.6,4.628-2.833,2.85L112,48.026Zm19.8-31.178V19.1h-6.686l1.529-9.238A7.14,7.14,0,0,1,132.774,16.71Zm-13.8-7.161h3.885L121.279,19.1h-.725Zm-9.911,7.161a7.14,7.14,0,0,1,5.156-6.851L115.75,19.1h-6.686Zm0,9.548V23.871h23.71v2.387a11.855,11.855,0,1,1-23.71,0ZM37.935,7.161a2.382,2.382,0,0,1,2.371-2.387H87.726A2.382,2.382,0,0,1,90.1,7.161V38.194H52.161V52.516H37.935ZM4.742,57.29H52.161v4.774H4.742Zm4.742,9.548H52.161v4.774H14.226v33.419H52.161v14.323H25.521L9.484,127.428ZM23.71,125.6v11.371l-11.3-5.686Zm75.871,12.847V124.129h5.192l1.276,14.323Zm7.158-44.868c.168-.155.324-.318.477-.487h11.333v50.129h-7.319Zm23.871,49.642H123.29V93.1H125.6a7.051,7.051,0,0,0,5.776-3.029l.887-1.277,2.107,2.123a7.217,7.217,0,0,0,.783.647l0,1.318ZM141.48,83.753a2.714,2.714,0,0,1,.778,1.893,2.67,2.67,0,0,1-2.658,2.676,2.63,2.63,0,0,1-1.88-.783l-2.7-2.718,3.1-4.455Zm.778-19.925a7.187,7.187,0,0,1-1.285,4.109l-13.486,19.4A2.3,2.3,0,0,1,123.29,86v-.882a2.359,2.359,0,0,1,.46-1.394l12.816-17.2a4.821,4.821,0,0,0,.95-2.865V59.677h-4.742v3.979l-1.98,2.656a7.3,7.3,0,0,0-4.846-1.861,7.433,7.433,0,0,0-7.4,7.45,7.527,7.527,0,0,0,2.167,5.268l1.138,1.143-1.9,2.544a7.2,7.2,0,0,0-1.409,4.259V86a7.073,7.073,0,0,0,.419,2.323h-9.9V59.677h-4.742V88.322a2.371,2.371,0,1,1-4.742,0v-32.3a7.177,7.177,0,0,1,6.108-7.088l1.5-.217,5.688,15.268,8.04-8.095,8.04,8.095,5.688-15.268,1.505.217a7.175,7.175,0,0,1,6.106,7.088Zm-18.19,9.967a2.714,2.714,0,0,1-.778-1.893,2.67,2.67,0,0,1,2.658-2.676,2.621,2.621,0,0,1,1.878.783l.123.124-3.222,4.325Zm0,0" fill="#0abfad"/>
    <path id="Path_322" data-name="Path 322" d="M198.581,48H144V72.258h54.581Zm-24.258,6.065h6.065V66.194h-6.065Zm-6.065,12.129h-6.065V54.065h6.065ZM150.065,54.065h6.065V66.194h-6.065Zm42.452,12.129h-6.065V54.065h6.065Zm0,0" transform="translate(-106.192 -29.807)" fill="#0abfad"/>
  </g>
</svg>
