<svg xmlns="http://www.w3.org/2000/svg" width="148" height="148" viewBox="0 0 148 148">
  <g id="project_1_" data-name="project (1)" transform="translate(0 0)">
    <path id="Path_321" data-name="Path 321" d="M148,63.828V56.02a11.993,11.993,0,0,0-10.245-11.813l-6.464-.922V39.95a16.691,16.691,0,0,0,7.161-13.692V23.871h4.774V19.1h-4.774V16.71A11.95,11.95,0,0,0,126.516,4.774h-9.548A11.95,11.95,0,0,0,105.032,16.71V19.1h-4.774v4.774h4.774v2.387a16.648,16.648,0,0,0,5.039,11.935H95.484V7.161A7.171,7.171,0,0,0,88.323,0H40.581a7.171,7.171,0,0,0-7.161,7.161V52.516H0V66.839H4.774v62.976l-2.95,1.476L25.7,143.226h81.5l.427,4.774h28.23l4.984-54.9v-.029a7.434,7.434,0,0,0,4.979-12.69L141.836,76.4l4.006-5.722A11.874,11.874,0,0,0,148,63.828Zm-18.254-15.94.977.139-2.753,7.34-2.852-2.85Zm-3.23-3.521-4.774,4.774-4.774-4.774v-2.1a16.54,16.54,0,0,0,9.548,0ZM28.645,133.677H95.484v4.774H28.645ZM95.484,128.9H28.645v-4.774H95.484ZM52.516,100.258H19.1V76.387H52.516ZM95.484,76.387H85.935V66.839h9.548Zm0-20.364v6.041H85.935V52.525l10.124,0a11.667,11.667,0,0,0-.576,3.493ZM81.161,62.064H66.839V52.516l14.323.007ZM66.839,66.839H81.161v9.548H66.839Zm0,14.323H81.161V90.71H66.839Zm0,14.323H81.161v9.548H66.839Zm0,14.323H81.161v9.548H66.839Zm19.1,9.548v-9.548H104.2l.858,9.548Zm17.839-14.323H85.935V95.484h16.71c.093,0,.179-.023.269-.027ZM85.935,90.71V81.161h9.548v7.161a7.062,7.062,0,0,0,.439,2.387ZM98.89,47.758l-36.825-.016v71.613H57.29V42.968h54.9v.317l-6.462.924a11.847,11.847,0,0,0-6.842,3.549Zm14.848.129,4.628,4.628-2.852,2.85-2.753-7.34ZM133.677,16.71V19.1h-6.731l1.54-9.238A7.148,7.148,0,0,1,133.677,16.71ZM119.785,9.549H123.7L122.1,19.1h-.73Zm-9.978,7.161A7.148,7.148,0,0,1,115,9.859l1.54,9.238h-6.731Zm0,9.548V23.871h23.871v2.387a11.935,11.935,0,1,1-23.871,0ZM38.194,7.161a2.39,2.39,0,0,1,2.387-2.387H88.323A2.39,2.39,0,0,1,90.71,7.161V38.194H52.516V52.516H38.194ZM4.774,57.29H52.516v4.774H4.774Zm4.774,9.548H52.516v4.774H14.323v33.419H52.516v14.323H25.7L9.548,127.428ZM23.871,125.6v11.371L12.5,131.29Zm76.387,12.847V124.129h5.228l1.284,14.323Zm7.207-44.868c.169-.155.326-.318.48-.487h11.41v50.129h-7.369ZM131.5,143.226h-7.369V93.1h2.323a7.113,7.113,0,0,0,5.815-3.029l.893-1.277,2.121,2.123a7.256,7.256,0,0,0,.788.647l0,1.318Zm10.945-59.472a2.677,2.677,0,0,1-1.893,4.569,2.657,2.657,0,0,1-1.893-.783l-2.719-2.718,3.118-4.455Zm.783-19.925a7.154,7.154,0,0,1-1.294,4.109l-13.578,19.4A2.322,2.322,0,0,1,124.129,86v-.882a2.349,2.349,0,0,1,.463-1.394l12.9-17.2a4.8,4.8,0,0,0,.957-2.865V59.677h-4.774v3.979l-1.993,2.656a7.378,7.378,0,0,0-4.879-1.861,7.451,7.451,0,0,0-5.268,12.719l1.146,1.143-1.909,2.544a7.165,7.165,0,0,0-1.419,4.259V86a7.03,7.03,0,0,0,.422,2.323h-9.97V59.677h-4.774V88.322a2.387,2.387,0,0,1-4.774,0v-32.3a7.193,7.193,0,0,1,6.15-7.088l1.513-.217,5.726,15.268,8.095-8.095,8.095,8.095,5.726-15.268,1.515.217a7.191,7.191,0,0,1,6.147,7.088Zm-18.313,9.967a2.677,2.677,0,0,1,1.893-4.569,2.648,2.648,0,0,1,1.891.783l.124.124-3.244,4.325Zm0,0" fill="#0abfad"/>
    <path id="Path_322" data-name="Path 322" d="M198.581,48H144V72.258h54.581Zm-24.258,6.065h6.065V66.194h-6.065Zm-6.065,12.129h-6.065V54.065h6.065ZM150.065,54.065h6.065V66.194h-6.065Zm42.452,12.129h-6.065V54.065h6.065Zm0,0" transform="translate(-105.783 -29.807)" fill="#0abfad"/>
  </g>
</svg>
