<svg xmlns="http://www.w3.org/2000/svg" width="148" height="148" viewBox="0 0 148 148">
  <g id="content" transform="translate(0)">
    <path id="Path_302" data-name="Path 302" d="M176,368h4.774v4.774H176Zm0,0" transform="translate(-123.484 -258.194)" fill="#0abfad"/>
    <path id="Path_303" data-name="Path 303" d="M144,368h4.774v4.774H144Zm0,0" transform="translate(-101.033 -258.194)" fill="#0abfad"/>
    <path id="Path_304" data-name="Path 304" d="M112,368h4.774v4.774H112Zm0,0" transform="translate(-78.581 -258.194)" fill="#0abfad"/>
    <path id="Path_305" data-name="Path 305" d="M345.548,272A9.558,9.558,0,0,0,336,281.548v31.6l9.548,19.1,9.548-19.1v-31.6A9.558,9.558,0,0,0,345.548,272Zm0,4.774a4.779,4.779,0,0,1,4.774,4.774v4.774h-9.548v-4.774A4.779,4.779,0,0,1,345.548,276.774Zm-4.774,33.419V291.1h9.548v19.1Zm1.476,4.774h6.6l-3.3,6.6Zm0,0" transform="translate(-235.742 -190.839)" fill="#0abfad"/>
    <path id="Path_306" data-name="Path 306" d="M148,74A74.01,74.01,0,0,0,37.628,9.548H9.548V37.654A73.969,73.969,0,0,0,94.905,144.971,38.189,38.189,0,0,0,144.97,94.9,74.026,74.026,0,0,0,148,74ZM141.629,88.73a38.39,38.39,0,0,0-17.5-14.305V42.968h11.723A68.767,68.767,0,0,1,143.225,74a69.47,69.47,0,0,1-1.6,14.731ZM109.806,71.613a37.91,37.91,0,0,0-19.1,5.168V66.839h19.1ZM85.935,62.064V80.039a38.641,38.641,0,0,0-5.9,5.9H14.322V33.419H119.355V72.871a37.968,37.968,0,0,0-4.774-.925V62.064Zm-57.29,42.968H56.566l7.161,4.774h7.885a37.964,37.964,0,0,0,1.258,9.548H35.806a7.171,7.171,0,0,1-7.161-7.161Zm45.78,19.1a38.256,38.256,0,0,0,5.613,9.548h-13.2v-9.548Zm-2.48-19.1h-6.77l-7.161-4.774H28.645V90.71H76.779a37.92,37.92,0,0,0-4.834,14.323Zm61.281-66.839h-9.1V26.331A69.753,69.753,0,0,1,133.226,38.194ZM74,4.774A68.819,68.819,0,0,1,99.212,9.548H48.773A69.378,69.378,0,0,1,74,4.774Zm35.021,9.548a69.667,69.667,0,0,1,10.334,7.446v6.877H14.322V14.323ZM74,143.226A69.184,69.184,0,0,1,9.548,48.787V90.71H23.871v21.484a11.95,11.95,0,0,0,11.935,11.935H62.064v9.548H52.516v4.774H84.63a38.038,38.038,0,0,0,4.1,3.177A69.509,69.509,0,0,1,74,143.226Zm35.806,0a33.419,33.419,0,1,1,33.419-33.419A33.455,33.455,0,0,1,109.806,143.226Zm0,0" fill="#0abfad"/>
    <path id="Path_307" data-name="Path 307" d="M64,64h4.774v4.774H64Zm0,0" transform="translate(-44.904 -44.903)" fill="#0abfad"/>
    <path id="Path_308" data-name="Path 308" d="M96,64h4.774v4.774H96Zm0,0" transform="translate(-67.355 -44.903)" fill="#0abfad"/>
    <path id="Path_309" data-name="Path 309" d="M128,64h4.774v4.774H128Zm0,0" transform="translate(-89.807 -44.903)" fill="#0abfad"/>
    <path id="Path_310" data-name="Path 310" d="M64,147.1H92.645V128H64Zm4.774-14.323h19.1v9.548h-19.1Zm0,0" transform="translate(-44.904 -89.806)" fill="#0abfad"/>
    <path id="Path_311" data-name="Path 311" d="M64,227.1H92.645V208H64Zm4.774-14.323h19.1v9.548h-19.1Zm0,0" transform="translate(-44.904 -145.936)" fill="#0abfad"/>
    <path id="Path_312" data-name="Path 312" d="M176,147.1h28.645V128H176Zm4.774-14.323h19.1v9.548h-19.1Zm0,0" transform="translate(-123.484 -89.806)" fill="#0abfad"/>
    <path id="Path_313" data-name="Path 313" d="M176,227.1h28.645V208H176Zm4.774-14.323h19.1v9.548h-19.1Zm0,0" transform="translate(-123.484 -145.936)" fill="#0abfad"/>
    <path id="Path_314" data-name="Path 314" d="M316.645,128H288v19.1h28.645Zm-4.774,14.323h-19.1v-9.548h19.1Zm0,0" transform="translate(-202.065 -89.806)" fill="#0abfad"/>
  </g>
</svg>
