<svg xmlns="http://www.w3.org/2000/svg" width="148" height="148" viewBox="0 0 148 148">
  <g id="project" transform="translate(0)">
    <path id="Path_323" data-name="Path 323" d="M139.355,304.516h-3.144c-.187-.528-.4-1.046-.636-1.558l3.175-3.175a2.062,2.062,0,0,0,0-2.919l-6.194-6.194a2.125,2.125,0,0,0-2.919,0l-3.175,3.175c-.512-.234-1.032-.449-1.558-.636v-3.144A2.064,2.064,0,0,0,122.839,288h-8.258a2.064,2.064,0,0,0-2.065,2.065v3.14c-.532.188-1.055.4-1.565.632l-3.169-3.167a2.062,2.062,0,0,0-2.919,0l-6.194,6.194a2.064,2.064,0,0,0,0,2.919l3.169,3.169c-.234.507-.445,1.03-.632,1.565H98.064A2.064,2.064,0,0,0,96,306.581v8.258a2.064,2.064,0,0,0,2.065,2.065h3.144c.188.528.4,1.046.636,1.558l-3.175,3.175a2.062,2.062,0,0,0,0,2.919l6.194,6.194a2.125,2.125,0,0,0,2.919,0l3.175-3.175c.512.234,1.032.449,1.558.636v3.144a2.064,2.064,0,0,0,2.065,2.065h8.258a2.064,2.064,0,0,0,2.065-2.065v-3.14c.532-.187,1.055-.4,1.565-.632l3.169,3.167a2.062,2.062,0,0,0,2.919,0l6.194-6.194a2.064,2.064,0,0,0,0-2.919l-3.169-3.169c.234-.507.445-1.03.632-1.565h3.142a2.064,2.064,0,0,0,2.065-2.065v-8.258A2.064,2.064,0,0,0,139.355,304.516Zm-2.065,8.258h-2.606a2.065,2.065,0,0,0-2,1.548,14.341,14.341,0,0,1-1.42,3.522,2.062,2.062,0,0,0,.335,2.482l2.77,2.77-3.274,3.274-2.77-2.77a2.067,2.067,0,0,0-2.482-.335,14.42,14.42,0,0,1-3.522,1.42,2.065,2.065,0,0,0-1.548,2v2.606h-4.129v-2.606a2.063,2.063,0,0,0-1.546-2,14.619,14.619,0,0,1-3.518-1.43,2.061,2.061,0,0,0-2.479.334l-2.779,2.781-3.274-3.274,2.778-2.781a2.063,2.063,0,0,0,.335-2.481,14.245,14.245,0,0,1-1.428-3.51,2.063,2.063,0,0,0-2-1.55h-2.606v-4.129h2.606a2.065,2.065,0,0,0,2-1.548,14.341,14.341,0,0,1,1.42-3.522,2.062,2.062,0,0,0-.335-2.482l-2.77-2.77,3.274-3.274,2.77,2.77a2.067,2.067,0,0,0,2.482.335,14.421,14.421,0,0,1,3.522-1.42,2.065,2.065,0,0,0,1.548-2v-2.606h4.129v2.606a2.063,2.063,0,0,0,1.546,2,14.618,14.618,0,0,1,3.518,1.43,2.065,2.065,0,0,0,2.479-.334l2.779-2.781,3.274,3.274-2.778,2.781a2.063,2.063,0,0,0-.335,2.481,14.245,14.245,0,0,1,1.428,3.51,2.063,2.063,0,0,0,2,1.55h2.606Zm0,0" transform="translate(-65.226 -193.677)" fill="#0abfad"/>
    <path id="Path_324" data-name="Path 324" d="M154.323,336a10.323,10.323,0,1,0,10.323,10.323A10.335,10.335,0,0,0,154.323,336Zm0,16.516a6.194,6.194,0,1,1,6.194-6.194A6.2,6.2,0,0,1,154.323,352.516Zm0,0" transform="translate(-99.916 -233.136)" fill="#0abfad"/>
    <path id="Path_325" data-name="Path 325" d="M147.3,19.8,128.206.7a2.381,2.381,0,0,0-1.69-.7H59.677A2.389,2.389,0,0,0,57.29,2.387V33.419H35.806a9.558,9.558,0,0,0-9.548,9.548V57.29H2.387A2.389,2.389,0,0,0,0,59.677v85.935A2.386,2.386,0,0,0,2.387,148H107.419a2.386,2.386,0,0,0,2.387-2.387V124.129h35.806A2.386,2.386,0,0,0,148,121.742V21.484A2.379,2.379,0,0,0,147.3,19.8ZM128.9,8.15,139.85,19.1H128.9ZM31.032,42.968a4.779,4.779,0,0,1,4.774-4.774H74a4.779,4.779,0,0,1,4.774,4.774V57.291H74V45.355a2.389,2.389,0,0,0-2.387-2.387H38.193a2.389,2.389,0,0,0-2.387,2.387V57.291H31.032Zm57.29,28.645H78.774A2.389,2.389,0,0,0,76.387,74v2.387H33.419V74a2.389,2.389,0,0,0-2.387-2.387H21.484A2.389,2.389,0,0,0,19.1,74v2.387H17.7l-3.376-3.376V62.065H95.484V73.012l-3.376,3.376h-1.4V74A2.389,2.389,0,0,0,88.322,71.613Zm-2.387,4.774v9.548H81.161V76.387Zm-57.29,0v9.548H23.871V76.387Zm40.581-19.1H62.064V47.742h7.161Zm-11.935,0H40.58V47.742H57.29Zm47.742,85.935H4.774V62.065H9.548V74a2.38,2.38,0,0,0,.7,1.688l4.774,4.774a2.38,2.38,0,0,0,1.688.7H19.1v7.161a2.386,2.386,0,0,0,2.387,2.387h9.548a2.386,2.386,0,0,0,2.387-2.387V81.161H76.387v7.161a2.386,2.386,0,0,0,2.387,2.387h9.548a2.386,2.386,0,0,0,2.387-2.387V81.161H93.1a2.38,2.38,0,0,0,1.688-.7l4.774-4.774a2.38,2.38,0,0,0,.7-1.688V62.065h4.774Zm38.194-23.871H109.806V59.678a2.389,2.389,0,0,0-2.387-2.387H83.548V42.968A9.558,9.558,0,0,0,74,33.42H62.064V4.774h62.065v16.71a2.389,2.389,0,0,0,2.387,2.387h16.71Zm0,0" fill="#0abfad"/>
    <path id="Path_326" data-name="Path 326" d="M269.419,46.452V34.065A2.066,2.066,0,0,0,267.355,32h-41.29A2.066,2.066,0,0,0,224,34.065V46.452a2.066,2.066,0,0,0,2.065,2.065h41.29A2.066,2.066,0,0,0,269.419,46.452Zm-4.129-2.065H228.129V36.129H265.29Zm0,0" transform="translate(-152.194 -23.742)" fill="#0abfad"/>
    <path id="Path_327" data-name="Path 327" d="M296,112h43.355v4.129H296Zm0,0" transform="translate(-199.613 -78.43)" fill="#0abfad"/>
    <path id="Path_328" data-name="Path 328" d="M296,144h43.355v4.129H296Zm0,0" transform="translate(-199.613 -100.839)" fill="#0abfad"/>
    <path id="Path_329" data-name="Path 329" d="M384,176h20.645v4.129H384Zm0,0" transform="translate(-264.903 -123.247)" fill="#0abfad"/>
    <path id="Path_330" data-name="Path 330" d="M384,208h20.645v4.129H384Zm0,0" transform="translate(-264.903 -145.656)" fill="#0abfad"/>
    <path id="Path_331" data-name="Path 331" d="M384,240h20.645v4.129H384Zm0,0" transform="translate(-264.903 -168.064)" fill="#0abfad"/>
    <path id="Path_332" data-name="Path 332" d="M384,272h20.645v4.129H384Zm0,0" transform="translate(-264.903 -190.473)" fill="#0abfad"/>
    <path id="Path_333" data-name="Path 333" d="M384,304h20.645v4.129H384Zm0,0" transform="translate(-264.903 -212.882)" fill="#0abfad"/>
    <path id="Path_334" data-name="Path 334" d="M384,336h20.645v4.129H384Zm0,0" transform="translate(-264.903 -235.29)" fill="#0abfad"/>
    <path id="Path_335" data-name="Path 335" d="M384,368h20.645v4.129H384Zm0,0" transform="translate(-264.903 -257.699)" fill="#0abfad"/>
  </g>
</svg>
