<svg xmlns="http://www.w3.org/2000/svg" width="98" height="45" viewBox="0 0 98 45">
  <g id="Group_393" data-name="Group 393" transform="translate(-300 -3187)">
    <g id="Group_425" data-name="Group 425">
      <rect id="Rectangle_725" data-name="Rectangle 725" width="98" height="45" rx="6" transform="translate(300 3187)" fill="#fff"/>
      <path id="Icon_awesome-amazon-pay" data-name="Icon awesome-amazon-pay" d="M.984,22.873c.162-.3.366-.345.682-.176.731.394,1.448.8,2.194,1.174a41.9,41.9,0,0,0,8.958,3.255,43.357,43.357,0,0,0,4.444.83,42.421,42.421,0,0,0,6.68.366c1.223-.028,2.447-.127,3.663-.267a42.445,42.445,0,0,0,11.482-3.009,1,1,0,0,1,.64-.084.568.568,0,0,1,.288.977,4.922,4.922,0,0,1-.675.52,26.925,26.925,0,0,1-7,3.368,33.279,33.279,0,0,1-5.28,1.238,30.3,30.3,0,0,1-3.741.337,1.5,1.5,0,0,0-.176.021H21.656a1.5,1.5,0,0,0-.176-.021c-.253-.014-.506-.021-.752-.028A29.975,29.975,0,0,1,17.184,31a31.528,31.528,0,0,1-5.653-1.47A31.172,31.172,0,0,1,1.294,23.414a2.437,2.437,0,0,1-.309-.4Zm11.109-18.3-.3.042A5.69,5.69,0,0,0,9.12,5.681c-.169.12-.323.246-.5.38a.3.3,0,0,1-.028-.1c-.028-.19-.056-.387-.091-.577a.473.473,0,0,0-.534-.464H7.158c-.485,0-.577.091-.577.577V20.215c0,.07,0,.141.007.211a.342.342,0,0,0,.345.352c.492.007.991.007,1.484,0a.348.348,0,0,0,.352-.352c.007-.07.007-.141.007-.211V15.124c.077.063.12.1.155.134a4.938,4.938,0,0,0,4.289,1.083,4.27,4.27,0,0,0,3.08-2.454,7.191,7.191,0,0,0,.724-3.1,8.058,8.058,0,0,0-.57-3.5A4.141,4.141,0,0,0,13.366,4.69c-.225-.049-.457-.07-.689-.105-.2-.007-.387-.007-.584-.007ZM8.761,7.523a.245.245,0,0,1,.12-.232,4.849,4.849,0,0,1,3.206-.928,2.546,2.546,0,0,1,2.355,1.821,6.688,6.688,0,0,1,.345,2.32,6.964,6.964,0,0,1-.281,2.152,2.718,2.718,0,0,1-3,2,4.876,4.876,0,0,1-2.63-.977.251.251,0,0,1-.12-.232c.007-.991,0-1.976,0-2.967s.007-1.969,0-2.96ZM23.224,4.577c-.07.007-.141.021-.2.028a10.406,10.406,0,0,0-2.032.288c-.429.112-.844.267-1.259.408a.508.508,0,0,0-.373.541c.007.232-.007.464,0,.7.007.338.148.429.478.345.548-.141,1.1-.3,1.652-.4a7.78,7.78,0,0,1,2.616-.1,1.7,1.7,0,0,1,1.181.591,1.946,1.946,0,0,1,.373,1.153c.021.584.014,1.167.021,1.751a.551.551,0,0,1-.014.1c-.035-.007-.063,0-.091-.007a12.7,12.7,0,0,0-2.25-.345,6.008,6.008,0,0,0-2.341.274,3.429,3.429,0,0,0-2.067,1.751,3.68,3.68,0,0,0-.274,2.159,2.889,2.889,0,0,0,1.5,2.229,4.07,4.07,0,0,0,2.665.38,5.784,5.784,0,0,0,2.834-1.294.517.517,0,0,1,.113-.077c.042.267.077.52.127.773a.4.4,0,0,0,.38.366c.38.007.766.007,1.146,0a.34.34,0,0,0,.337-.33,1.842,1.842,0,0,0,.007-.2V8.205a5.625,5.625,0,0,0-.063-.907,2.791,2.791,0,0,0-1.336-2.137,4.057,4.057,0,0,0-1.533-.5c-.253-.035-.506-.056-.759-.091-.274.007-.555.007-.837.007Zm2.461,8.979a.234.234,0,0,1-.105.211,5.354,5.354,0,0,1-2.63,1.048,2.413,2.413,0,0,1-1.181-.127,1.412,1.412,0,0,1-.872-.935,2.313,2.313,0,0,1-.007-1.364,1.62,1.62,0,0,1,1.153-1.1,4.312,4.312,0,0,1,1.744-.155c.591.049,1.167.162,1.758.239.112.014.148.07.148.183-.007.337,0,.668,0,1.005S25.678,13.226,25.685,13.556Zm18.274,9.1c-.07-.352-.338-.485-.64-.584a6.217,6.217,0,0,0-1.477-.274,10.358,10.358,0,0,0-2.756.134,7.26,7.26,0,0,0-2.812,1.1.967.967,0,0,0-.26.246.359.359,0,0,0-.035.281c.028.105.148.134.253.127a1.139,1.139,0,0,0,.155-.007c.548-.056,1.09-.12,1.638-.176a13.828,13.828,0,0,1,2.412-.063,5.037,5.037,0,0,1,1.012.19.709.709,0,0,1,.534.731,5.173,5.173,0,0,1-.246,1.638,29.712,29.712,0,0,1-1.111,3.171,1.237,1.237,0,0,0-.07.211c-.035.2.084.337.288.288a.743.743,0,0,0,.337-.176,10.259,10.259,0,0,0,.893-.942,9.491,9.491,0,0,0,1.737-3.909c.056-.253.1-.513.148-.766V22.655Zm-9.288-8.663q-1.361-3.765-2.721-7.537c-.141-.4-.3-.795-.443-1.188a.466.466,0,0,0-.45-.338c-.534-.007-1.069-.014-1.61-.007-.176,0-.26.141-.225.316a3.03,3.03,0,0,0,.134.429q2.067,5.115,4.155,10.23a.954.954,0,0,1,.014.83c-.232.513-.415,1.055-.654,1.568a1.617,1.617,0,0,1-1.069.935,2.962,2.962,0,0,1-1.083.077c-.176-.014-.352-.056-.527-.07-.239-.014-.359.091-.366.337s-.007.466,0,.7c.007.387.141.563.52.626a7.606,7.606,0,0,0,1.188.141,2.947,2.947,0,0,0,2.777-1.5,9.255,9.255,0,0,0,.647-1.294q2.5-6.307,4.964-12.628a1.872,1.872,0,0,0,.113-.387c.028-.2-.063-.309-.26-.309-.464-.007-.935,0-1.4,0a.53.53,0,0,0-.541.366c-.035.1-.077.19-.113.288L35.276,12.6c-.176.506-.359,1.02-.541,1.561-.028-.077-.042-.12-.063-.169Z" transform="translate(327.016 3191.429)" fill="#0aa696"/>
    </g>
  </g>
</svg>
