<svg id="gift" xmlns="http://www.w3.org/2000/svg" width="43" height="43" viewBox="0 0 43 43">
  <rect id="Rectangle_1104" data-name="Rectangle 1104" width="43" height="43" transform="translate(43 43) rotate(180)" fill="#4b4b4b" opacity="0"/>
  <path id="Path_289" data-name="Path 289" d="M36.291,11.222h-.8a6.169,6.169,0,0,0,.39-2.055A6.329,6.329,0,0,0,29.429,3,9.162,9.162,0,0,0,21.5,7.934,9.162,9.162,0,0,0,13.571,3,6.329,6.329,0,0,0,7.12,9.167a6.169,6.169,0,0,0,.39,2.055h-.8a4.11,4.11,0,0,0-3.7,4.522v7.4a4.275,4.275,0,0,0,3.081,4.522v8.982A3.6,3.6,0,0,0,9.811,40H33.189a3.6,3.6,0,0,0,3.718-3.433v-8.9a4.275,4.275,0,0,0,3.081-4.522v-7.4a4.11,4.11,0,0,0-3.7-4.522Zm-.411,4.522v7.4a1.152,1.152,0,0,1,0,.411H23.554V15.333H35.88a1.152,1.152,0,0,1,0,.411Zm-6.45-8.633a2.219,2.219,0,0,1,2.342,2.055,2.219,2.219,0,0,1-2.342,2.055H24.376A6.02,6.02,0,0,1,29.429,7.112Zm-18.2,2.055a2.219,2.219,0,0,1,2.342-2.055A6.02,6.02,0,0,1,18.6,11.222H13.571a2.219,2.219,0,0,1-2.342-2.055ZM7.12,15.744a1.152,1.152,0,0,1,0-.411H19.446v8.222H7.12a1.152,1.152,0,0,1,0-.411ZM10.2,27.666h9.244v8.222H10.2Zm13.353,8.222V27.666H32.8v8.222Z" transform="translate(0 0)" fill="#4b4b4b"/>
</svg>
